
          <svg data-logo="logo" xmlns="http://www.w3.org/2000/svg" viewBox="0 0 251 43">
            <g id="logogram" transform="translate(0, 1) rotate(0)"><path d="M37.603 7.96047L31.641 13.9225C30.687 10.9935 27.934 8.87646 24.686 8.87646C22.746 8.87646 20.886 9.64747 19.514 11.0185L10.142 20.3915C8.77 21.7625 8 23.6235 8 25.5625C8 29.6025 11.274 32.8765 15.313 32.8765C17.253 32.8765 19.113 32.1065 20.485 30.7345L45.858 5.36147C48.729 2.49047 52.624 0.876465 56.686 0.876465C62.114 0.876465 66.883 3.70147 69.603 7.96047L63.641 13.9225C62.687 10.9935 59.933 8.87646 56.686 8.87646C54.746 8.87646 52.886 9.64747 51.514 11.0185L32.625 29.9085L26.142 36.3915C23.27 39.2635 19.375 40.8765 15.313 40.8765C6.856 40.8765 0 34.0205 0 25.5625C0 21.5015 1.613 17.6065 4.485 14.7345L13.858 5.36147C16.729 2.49047 20.624 0.876465 24.686 0.876465C30.114 0.876465 34.883 3.70147 37.603 7.96047ZM77.858 5.36147C80.729 2.49047 84.624 0.876465 88.686 0.876465C97.144 0.876465 104 7.73247 104 16.1905C104 20.2515 102.387 24.1465 99.514 27.0185L90.142 36.3915C87.27 39.2635 83.375 40.8765 79.313 40.8765C73.885 40.8765 69.117 38.0525 66.397 33.7935L72.358 27.8315C73.313 30.7605 76.066 32.8765 79.313 32.8765C81.253 32.8765 83.113 32.1065 84.485 30.7345L93.858 21.3615C95.229 19.9905 96 18.1305 96 16.1905C96 12.1515 92.725 8.87646 88.686 8.87646C86.746 8.87646 84.886 9.64747 83.514 11.0185L58.142 36.3915C55.27 39.2635 51.375 40.8765 47.313 40.8765C41.885 40.8765 37.117 38.0525 34.397 33.7935L40.359 27.8325C41.313 30.7605 44.066 32.8765 47.313 32.8765C49.253 32.8765 51.113 32.1065 52.485 30.7345L77.858 5.36147Z" fill="#394149"/></g>
            <g id="logotype" transform="translate(110, 3)"><path fill="#394149" d="M31.30 37Q30.80 37 30.65 36.50L30.65 36.50L29.15 31.60Q29.05 31.40 28.90 31.40L28.90 31.40L16.60 31.40Q16.45 31.40 16.35 31.60L16.35 31.60L14.90 36.50Q14.75 37 14.25 37L14.25 37L7.90 37Q7.60 37 7.45 36.83Q7.30 36.65 7.40 36.30L7.40 36.30L18.20 2.50Q18.35 2 18.85 2L18.85 2L26.70 2Q27.20 2 27.35 2.50L27.35 2.50L38.15 36.30Q38.20 36.40 38.20 36.55L38.20 36.55Q38.20 37 37.65 37L37.65 37L31.30 37ZM18.15 25.65Q18.10 25.95 18.35 25.95L18.35 25.95L27.15 25.95Q27.45 25.95 27.35 25.65L27.35 25.65L22.85 10.80Q22.80 10.60 22.70 10.63Q22.60 10.65 22.55 10.80L22.55 10.80L18.15 25.65ZM44.30 8.40Q42.60 8.40 41.48 7.27Q40.35 6.15 40.35 4.45L40.35 4.45Q40.35 2.70 41.45 1.60Q42.55 0.50 44.30 0.50L44.30 0.50Q46.05 0.50 47.15 1.60Q48.25 2.70 48.25 4.45L48.25 4.45Q48.25 6.15 47.13 7.27Q46.00 8.40 44.30 8.40L44.30 8.40ZM41.30 37Q41.05 37 40.88 36.83Q40.70 36.65 40.70 36.40L40.70 36.40L40.70 11.85Q40.70 11.60 40.88 11.42Q41.05 11.25 41.30 11.25L41.30 11.25L47.15 11.25Q47.40 11.25 47.58 11.42Q47.75 11.60 47.75 11.85L47.75 11.85L47.75 36.40Q47.75 36.65 47.58 36.83Q47.40 37 47.15 37L47.15 37L41.30 37ZM64.40 10.95Q66.20 10.95 67.25 11.65L67.25 11.65Q67.65 11.85 67.55 12.40L67.55 12.40L66.50 18.10Q66.45 18.70 65.80 18.45L65.80 18.45Q65.05 18.20 64.05 18.20L64.05 18.20Q63.65 18.20 62.95 18.30L62.95 18.30Q61.15 18.45 59.90 19.63Q58.65 20.80 58.65 22.75L58.65 22.75L58.65 36.40Q58.65 36.65 58.48 36.83Q58.30 37 58.05 37L58.05 37L52.20 37Q51.95 37 51.78 36.83Q51.60 36.65 51.60 36.40L51.60 36.40L51.60 11.90Q51.60 11.65 51.78 11.47Q51.95 11.30 52.20 11.30L52.20 11.30L58.05 11.30Q58.30 11.30 58.48 11.47Q58.65 11.65 58.65 11.90L58.65 11.90L58.65 13.80Q58.65 13.95 58.75 14Q58.85 14.05 58.90 13.95L58.90 13.95Q60.95 10.95 64.40 10.95L64.40 10.95ZM76.80 37Q76.30 37 76.15 36.50L76.15 36.50L68.15 11.95Q68.10 11.85 68.10 11.70L68.10 11.70Q68.10 11.25 68.65 11.25L68.65 11.25L75.10 11.25Q75.65 11.25 75.80 11.75L75.80 11.75L79.90 26.90Q79.95 27.05 80.05 27.05Q80.15 27.05 80.20 26.90L80.20 26.90L84.30 11.75Q84.45 11.25 85 11.25L85 11.25L91.45 11.35Q91.75 11.35 91.90 11.52Q92.05 11.70 91.95 12.05L91.95 12.05L84 36.50Q83.85 37 83.35 37L83.35 37L76.80 37ZM115.10 21.50Q115.40 23.40 115.30 25.75L115.30 25.75Q115.25 26.35 114.65 26.35L114.65 26.35L99.20 26.35Q98.90 26.35 99.00 26.60L99.00 26.60Q99.15 27.60 99.55 28.60L99.55 28.60Q100.85 31.40 104.85 31.40L104.85 31.40Q108.05 31.35 109.90 28.80L109.90 28.80Q110.10 28.50 110.35 28.50L110.35 28.50Q110.50 28.50 110.70 28.70L110.70 28.70L114.30 32.25Q114.55 32.50 114.55 32.70L114.55 32.70Q114.55 32.80 114.35 33.10L114.35 33.10Q112.70 35.15 110.10 36.27Q107.50 37.40 104.40 37.40L104.40 37.40Q100.10 37.40 97.12 35.45Q94.15 33.50 92.85 30L92.85 30Q91.80 27.50 91.80 23.45L91.80 23.45Q91.80 20.70 92.55 18.60L92.55 18.60Q93.70 15.05 96.57 12.95Q99.45 10.85 103.40 10.85L103.40 10.85Q108.40 10.85 111.42 13.75Q114.45 16.65 115.10 21.50L115.10 21.50ZM103.45 16.95Q100.30 16.95 99.30 19.90L99.30 19.90Q99.10 20.55 98.95 21.50L98.95 21.50Q98.95 21.75 99.20 21.75L99.20 21.75L107.85 21.75Q108.15 21.75 108.05 21.50L108.05 21.50Q107.80 20.05 107.80 20.10L107.80 20.10Q107.35 18.60 106.22 17.77Q105.10 16.95 103.45 16.95L103.45 16.95ZM115.80 37Q115.45 37 115.32 36.77Q115.20 36.55 115.40 36.25L115.40 36.25L123.45 24.30Q123.55 24.15 123.45 24L123.45 24L115.40 12.05Q115.30 11.85 115.30 11.70L115.30 11.70Q115.30 11.30 115.80 11.30L115.80 11.30L122.05 11.30Q122.50 11.30 122.75 11.70L122.75 11.70L127.25 18.55Q127.45 18.85 127.60 18.55L127.60 18.55L132.10 11.70Q132.35 11.30 132.80 11.30L132.80 11.30L139.50 11.30Q139.85 11.30 139.95 11.52Q140.05 11.75 139.85 12.05L139.85 12.05L131.85 24Q131.80 24.15 131.85 24.30L131.85 24.30L139.85 36.25Q139.95 36.40 139.95 36.60L139.95 36.60Q139.95 37 139.50 37L139.50 37L133.20 37Q132.75 37 132.50 36.60L132.50 36.60L128.00 29.75Q127.85 29.45 127.70 29.75L127.70 29.75L123.20 36.60Q122.95 37 122.50 37L122.50 37L115.80 37Z"/></g>
            
          </svg>
        